<?xml version="1.0" standalone="no"?>
<!DOCTYPE svg PUBLIC "-//W3C//DTD SVG 20010904//EN"
 "http://www.w3.org/TR/2001/REC-SVG-20010904/DTD/svg10.dtd">
<svg version="1.0" xmlns="http://www.w3.org/2000/svg"
 width="16.000000pt" height="16.000000pt" viewBox="0 0 16.000000 16.000000"
 preserveAspectRatio="xMidYMid meet">
<metadata>
Created by potrace 1.11, written by Peter Selinger 2001-2013
</metadata>
<g transform="translate(0.000000,16.000000) scale(0.001481,-0.001481)"
fill="#000000" stroke="none">
<path d="M1970 5400 l0 -4520 473 0 474 0 0 2925 c0 1609 2 2927 4 2930 3 2
13 -39 23 -93 10 -53 20 -104 21 -112 2 -8 17 -89 34 -180 17 -91 36 -185 41
-210 5 -25 12 -61 15 -80 3 -19 8 -43 11 -53 3 -11 7 -29 8 -40 2 -12 6 -35 9
-52 4 -16 9 -43 12 -60 5 -29 9 -49 20 -105 5 -23 13 -68 21 -115 2 -11 8 -42
14 -70 5 -27 12 -61 14 -75 3 -14 18 -95 35 -180 42 -219 41 -211 47 -250 3
-19 7 -41 10 -49 2 -8 7 -30 10 -50 3 -20 9 -52 14 -71 5 -19 12 -55 15 -80 4
-25 10 -63 15 -85 5 -22 11 -53 14 -70 3 -16 8 -41 11 -55 2 -14 11 -61 20
-105 8 -44 28 -150 45 -235 16 -85 31 -166 34 -180 2 -14 11 -59 19 -100 14
-69 53 -272 63 -329 3 -13 27 -141 55 -285 28 -143 54 -283 60 -311 5 -27 11
-61 14 -75 3 -14 7 -36 10 -50 2 -14 7 -39 10 -57 3 -17 21 -112 40 -210 20
-98 38 -189 40 -203 2 -14 16 -86 30 -160 14 -74 35 -182 46 -240 10 -58 21
-112 24 -120 2 -8 7 -31 10 -50 15 -89 65 -355 111 -585 9 -44 18 -91 20 -105
2 -14 7 -36 9 -50 3 -14 8 -38 10 -55 3 -16 10 -53 16 -81 5 -28 12 -64 16
-80 3 -16 6 -35 6 -42 0 -10 103 -12 495 -10 431 3 495 5 498 18 1 8 4 26 7
40 3 14 10 52 16 85 6 33 13 71 16 85 22 116 55 290 59 313 3 15 7 35 10 45 3
9 7 35 11 57 3 22 17 96 30 165 30 156 102 535 110 575 9 54 16 89 30 160 8
39 23 120 35 180 11 61 22 119 24 130 8 44 45 242 50 265 2 14 7 36 10 50 3
14 8 39 10 55 3 17 10 50 15 75 5 25 12 62 15 82 3 21 10 57 15 80 5 24 12 60
15 80 3 21 10 57 15 80 12 51 19 90 27 138 3 19 10 55 16 80 6 25 12 54 13 65
3 24 53 290 60 325 6 27 22 110 29 150 8 47 57 305 66 350 5 25 12 56 14 70 2
14 15 86 30 160 14 74 27 147 30 163 3 15 7 35 10 45 3 9 7 33 10 52 3 19 7
44 10 55 2 11 11 58 20 105 9 47 18 94 20 105 15 77 66 346 71 375 3 19 8 42
10 50 2 8 7 35 10 60 4 24 8 48 11 51 2 4 6 24 9 45 4 22 12 71 20 109 13 66
17 85 30 160 3 17 22 113 41 215 20 102 38 196 41 210 2 13 6 26 7 27 2 2 3
-1294 4 -2879 0 -1586 1 -2889 1 -2895 1 -10 103 -13 474 -13 l472 0 0 4520 0
4520 -532 0 c-293 0 -533 -1 -533 -2 0 -2 -7 -37 -16 -78 -9 -41 -18 -86 -20
-100 -2 -14 -7 -38 -11 -55 -4 -16 -7 -32 -8 -35 0 -3 -4 -21 -8 -40 -4 -19
-9 -44 -11 -55 -45 -213 -98 -466 -102 -489 -3 -17 -14 -69 -24 -116 -10 -47
-21 -98 -24 -115 -3 -16 -8 -39 -10 -50 -3 -11 -23 -110 -46 -220 -23 -110
-44 -209 -46 -220 -3 -11 -7 -31 -10 -45 -4 -20 -55 -271 -79 -384 -3 -14 -8
-38 -11 -53 -3 -16 -10 -48 -15 -73 -6 -25 -13 -56 -15 -70 -3 -14 -21 -101
-41 -195 -19 -93 -37 -183 -39 -198 -2 -16 -6 -32 -9 -37 -3 -4 -7 -25 -11
-46 -3 -22 -9 -55 -14 -74 -5 -19 -12 -51 -15 -70 -3 -19 -10 -51 -15 -70 -5
-19 -11 -49 -13 -67 -3 -17 -14 -73 -26 -125 -18 -83 -83 -393 -95 -458 -3
-14 -23 -113 -46 -220 -22 -107 -49 -238 -60 -290 -10 -52 -28 -135 -39 -185
-11 -49 -22 -101 -24 -115 -3 -14 -29 -137 -57 -275 -29 -137 -54 -259 -55
-270 -2 -11 -10 -51 -19 -90 -9 -38 -18 -81 -20 -95 -3 -14 -21 -104 -41 -200
-20 -96 -39 -186 -42 -200 -2 -14 -13 -63 -23 -110 -10 -47 -21 -96 -24 -110
-2 -14 -10 -47 -15 -75 -6 -27 -15 -72 -20 -100 -5 -27 -14 -70 -20 -95 -5
-25 -12 -56 -14 -70 -3 -14 -8 -36 -11 -50 -3 -14 -8 -36 -10 -50 -2 -14 -11
-56 -20 -95 -17 -78 -73 -346 -80 -385 -2 -14 -21 -104 -41 -200 -20 -96 -43
-210 -52 -253 -9 -42 -17 -76 -19 -74 -3 2 -49 223 -60 287 -6 35 -61 314 -74
376 -6 28 -13 64 -16 80 -2 16 -11 62 -20 103 -9 41 -17 84 -19 95 -1 12 -5
35 -9 51 -3 17 -8 39 -10 50 -2 11 -20 101 -40 200 -19 99 -37 191 -40 205 -2
14 -14 75 -26 135 -12 61 -24 119 -26 130 -2 11 -13 67 -25 125 -11 58 -23
116 -26 130 -2 14 -18 95 -35 180 -16 85 -31 164 -33 175 -2 11 -15 79 -30
150 -29 145 -84 426 -91 465 -2 14 -13 68 -24 120 -10 52 -21 106 -24 120 -2
14 -16 84 -30 155 -15 72 -28 141 -31 155 -3 14 -11 59 -20 100 -8 41 -17 86
-19 100 -3 14 -15 75 -26 135 -12 61 -26 130 -30 155 -11 56 -110 558 -116
585 -4 22 -33 165 -40 205 -3 14 -11 57 -19 95 -8 39 -17 86 -20 105 -3 19 -8
42 -10 50 -2 8 -7 29 -10 45 -12 72 -16 91 -20 105 -2 8 -7 31 -10 50 -6 36
-67 346 -85 435 -16 77 -20 98 -25 130 -3 17 -10 50 -15 75 -5 25 -12 56 -14
70 -5 30 -81 415 -101 515 -8 39 -16 81 -19 95 -2 14 -23 120 -46 235 -50 254
-45 226 -60 308 l-12 67 -579 0 -579 0 0 -4520z"/>
<path d="M7885 9843 c5 -120 15 -329 20 -423 5 -80 9 -175 20 -430 2 -58 7
-145 10 -195 2 -49 7 -151 11 -225 3 -74 7 -171 9 -215 2 -44 7 -138 10 -210
3 -71 7 -166 10 -210 3 -44 7 -141 10 -215 3 -74 8 -171 10 -215 9 -166 22
-447 24 -510 1 -20 7 -20 342 -20 l342 0 3 40 c1 22 5 117 9 210 3 94 8 199
10 235 2 36 6 133 9 215 3 83 8 195 11 250 3 55 8 159 10 230 9 232 15 368 20
470 2 55 7 159 10 230 3 72 8 175 10 230 2 55 7 163 10 240 3 77 7 178 10 225
2 47 7 149 10 228 l7 142 -475 0 -475 0 3 -77z"/>
</g>
</svg>
